<svg xmlns="http://www.w3.org/2000/svg" width="461.197" height="161.362" viewBox="0 0 461.197 161.362">
  <g id="logo_big" transform="translate(-27 -1003.086)">
    <g id="Group_22" data-name="Group 22" transform="translate(36.843 1006.586)">
      <path id="Path_165" data-name="Path 165" d="M37.869-378.062c-14.136,0-21.31-5.01-28.247-9.855-6.825-4.766-13.883-9.695-27.739-9.695s-20.912,4.928-27.738,9.695c-6.936,4.845-14.11,9.855-28.245,9.855s-21.309-5.01-28.245-9.855c-6.824-4.766-13.881-9.695-27.736-9.695s-20.911,4.928-27.736,9.695c-6.936,4.845-14.109,9.855-28.243,9.855s-21.308-5.01-28.245-9.855c-6.824-4.766-13.88-9.695-27.735-9.695s-20.913,4.928-27.737,9.695c-6.936,4.845-14.11,9.855-28.245,9.855s-21.307-5.01-28.244-9.855c-6.824-4.766-13.88-9.695-27.735-9.695v-.889c14.135,0,21.308,5.01,28.244,9.855,6.823,4.766,13.88,9.695,27.735,9.695s20.912-4.928,27.736-9.695c6.937-4.845,14.11-9.855,28.246-9.855s21.308,5.01,28.244,9.855c6.824,4.766,13.881,9.695,27.736,9.695s20.911-4.928,27.735-9.695c6.936-4.845,14.109-9.855,28.244-9.855s21.308,5.01,28.244,9.855c6.824,4.766,13.881,9.695,27.737,9.695s20.912-4.928,27.737-9.695c6.937-4.845,14.11-9.855,28.246-9.855s21.31,5.01,28.247,9.855c6.825,4.766,13.882,9.695,27.739,9.695s20.914-4.928,27.739-9.695c6.937-4.845,14.111-9.855,28.247-9.855v.889c-13.857,0-20.914,4.928-27.738,9.695C59.178-383.072,52-378.062,37.869-378.062Z" transform="translate(354 398.5)" fill="#9ffff0" stroke="#9ffff0" stroke-linecap="round" stroke-width="7"/>
    </g>
  </g>
</svg>
