<svg xmlns="http://www.w3.org/2000/svg" xmlns:xlink="http://www.w3.org/1999/xlink" width="1920" height="1080" viewBox="0 0 1920 1080">
  <defs>
    <linearGradient id="linear-gradient" x1="0.5" y1="0.691" x2="0.5" y2="0.225" gradientUnits="objectBoundingBox">
      <stop offset="0" stop-color="#002d70"/>
      <stop offset="0.266" stop-color="#114788"/>
      <stop offset="0.514" stop-color="#296dac"/>
      <stop offset="1" stop-color="#61c5ff"/>
    </linearGradient>
    <clipPath id="clip-Web_1920_12">
      <rect width="1920" height="1080"/>
    </clipPath>
  </defs>
  <g id="Web_1920_12" data-name="Web 1920 – 12" clip-path="url(#clip-Web_1920_12)">
    <rect width="1920" height="1080" fill="#fff"/>
    <g id="Group_120" data-name="Group 120" transform="translate(-2.871 -2.291)">
      <rect id="Rectangle_26" data-name="Rectangle 26" width="1968.892" height="1106.961" transform="translate(-21.129 -11.709)" fill="url(#linear-gradient)"/>
      <g id="Group_118" data-name="Group 118">
        <path id="Path_492" data-name="Path 492" d="M1773.31,563.463c-1.494,8.59-5.916,19.608-7.586,31.38-1.337,9.4,6.191,17.119,5.13,28.5-.906,9.9,3.949,19.243,3.458,30.417-.433,10.231-5.326,21.737-5.326,32.607-.02,10.289-5.621,21.562-5.267,32.225.334,10.22,3.812,20.43,4.46,31.093.61,10.279,7.175,20.568,8.041,31.241.843,10.5-8.236,20.924-7.332,31.281.924,10.25,12.6,21.149,13.543,31.713.962,10.534-4.227,20.461-3.361,30.77.845,10.437,2.318,20.9,2.987,31.2.688,10.456,5.208,21.443,5.621,31.751.453,10.674-13.09,18.477-13.012,28.441.079,10.438,4.07,21.681,3.736,31.724-.335,10.574,9.825,23.526,9.02,33.708-.883,11.027-9.514,19.5-10.79,29.344-1.475,11.185-.1,20.226-1.73,29.993,2.576,4.778.511,2.693,4.639-.038,11.222-7.7,10.691-3.989,14.7-24.058,1.671-8.944-4.738-22.171-3.4-34.082,1.081-9.552,2.85-19.772,3.4-31.114.491-9.866,3.106-19.85,3.065-30.956-.038-10.082,4.756-19.773,4.227-30.838-.491-10.279,1.276-20.648.393-31.635-.866-10.466-8.472-21.729-9.593-32.5-1.1-10.448-9.944-21.3-11.222-31.9-1.218-10.337-2.359-20.785-3.676-31.4-1.278-10.349,1.279-21.05,0-31.693-1.237-10.458-3.2-20.865-4.305-31.409-1.1-10.418,4.09-21.944,3.225-32.567-.846-10.575-6.7-20-7.194-30.407-.511-10.418,7.135-23.045,7.1-33.572-.038-10.622-10.162-17.757-9.709-27.937.471-10.4-1.022-19.744.02-29.828C1767.65,584.633,1771.581,573.478,1773.31,563.463Z" fill="#1b5b80"/>
        <path id="Path_493" data-name="Path 493" d="M1796.129,430.165c-2.043,10.643-8.137,24.283-10.417,38.877-1.828,11.645,8.491,21.2,7.056,35.3-1.258,12.265,5.406,23.842,4.738,37.679-.61,12.677-7.312,26.927-7.332,40.39,0,12.746-7.7,26.712-7.214,39.919.473,12.667,5.229,25.317,6.113,38.524.865,12.736,9.868,25.482,11.027,38.7,1.159,13-11.3,25.915-10.025,38.748,1.24,12.7,17.258,26.2,18.575,39.281,1.316,13.05-5.8,25.355-4.639,38.13,1.179,12.923,3.184,25.887,4.107,38.643.964,12.951,7.155,26.563,7.725,39.339.61,13.217-17.965,22.888-17.866,35.222.118,12.931,5.6,26.867,5.15,39.309-.473,13.108,13.463,29.147,12.362,41.746-1.2,13.66-13.07,24.156-14.819,36.361-2.005,13.857-.119,25.041-2.359,37.168,3.518,5.917.708,3.323,6.348-.079,15.429-9.532,14.682-4.913,20.187-29.8,2.28-11.066-6.487-27.457-4.66-42.2,1.476-11.832,3.913-24.51,4.66-38.544.668-12.245,4.264-24.607,4.206-38.365-.06-12.481,6.525-24.49,5.8-38.19-.669-12.736,1.751-25.581.531-39.2-1.18-12.953-11.615-26.909-13.169-40.253-1.493-12.933-13.64-26.378-15.371-39.516-1.688-12.807-3.242-25.748-5.049-38.9-1.749-12.825,1.749-26.074,0-39.261-1.691-12.953-4.4-25.857-5.918-38.917-1.493-12.9,5.6-27.183,4.442-40.331-1.159-13.111-9.2-24.776-9.886-37.679s9.808-28.54,9.749-41.58c-.058-13.159-13.955-21.994-13.345-34.611.648-12.875-1.4-24.462.058-36.953C1788.346,456.384,1793.732,442.577,1796.129,430.165Z" fill="#1b5b80"/>
        <path id="Path_494" data-name="Path 494" d="M1832.353,455.883c1.67,9.041.235,21.169,1.966,32.627,1.4,9.337,13.7,14.849,14.9,26.024,1.042,9.729,8.982,17.226,9.691,28.213.668,10.073-4.738,22.516-4.462,33.149.255,10.073-6.958,22.632-7.036,33.049-.079,9.945,3.379,19.193,3.006,29.689-.374,10.043,6.328,18.76,5.7,29.365-.63,10.357-13.7,22.819-14.505,33.04-.787,10.013,11.438,18.691,10.476,29.3-.944,10.435-9.337,21.392-10.339,31.711-1,10.291-1.218,20.628-2.24,31-1,10.329,2.693,20.863,1.709,31.339-.983,10.613-18.259,19.656-19.064,29.669-.846,10.21,3.242,21.08,2.574,31.321-.688,10.278,11.341,23.045,10.888,33.521-.471,10.711-9.63,19.025-9.787,29.147-.177,10.516,3.814,22.113,3.989,32.353.159,10.653,3.047,22.033,3.6,32.215.589,10.868-10.458,16.254-9.534,26.022,1.022,10.574,11.89,25.433,13.307,35.36,1.552,10.947,2.1,22.012,3.949,31.506-1.139,2.005-4.814-1.513-7.193-5.444-9.631-16.077,3.6-7.449-.059-27.576-1.513-8.767-.2-17.965-1.592-29.994-1.1-9.591-9.847-23.015-10.594-34.121-.648-9.749-10.142-23.093-10.4-33.708-.215-9.689-.078-19.772.079-30.306.139-9.75,5.052-18.782,5.543-29.327.453-9.916.139-20.283.885-30.681.707-9.876,9.061-19.005,10.044-29.542.923-10.151-4.344-20.99-3.263-31.27,1.041-9.955,11.949-19.714,13.149-30.248,1.159-10.319-10.339-20.57-9.18-30.691,1.161-10.054-.413-20.059.729-30.2,1.1-9.937,12.361-21.041,13.424-31.438,1.02-10.192,5.247-20.914,6.133-31.3.883-10.289,3.419-20.931,4.087-31.339.648-10.4-2.457-19.9-2.1-30.21.372-10.436-10.711-17.649-10.693-27.722.02-10.114,12.776-24.48,12.384-34.956-.375-10.506-5.682-19.213-6.525-29.5-.828-10.387,6.641-24.272,5.267-34.817C1849.865,470.32,1834.241,466.065,1832.353,455.883Z" fill="#1b5b80"/>
        <path id="Path_495" data-name="Path 495" d="M1723.013,658.467c-1.395,7.517-.2,17.59-1.632,27.122-1.159,7.755-11.4,12.344-12.382,21.63-.883,8.089-7.469,14.329-8.079,23.468-.529,8.365,3.951,18.712,3.716,27.557-.216,8.373,5.778,18.809,5.857,27.467.06,8.266-2.81,15.96-2.5,24.687.314,8.343-5.267,15.6-4.736,24.412.529,8.608,11.4,18.967,12.048,27.467.648,8.324-9.514,15.537-8.707,24.353.785,8.676,7.763,17.788,8.608,26.365.825,8.56,1.023,17.14,1.848,25.769.845,8.59-2.22,17.355-1.415,26.043.825,8.824,15.173,16.353,15.842,24.686.708,8.491-2.693,17.512-2.124,26.023.572,8.55-9.433,19.163-9.061,27.871.395,8.9,8,15.822,8.137,24.235.157,8.745-3.184,18.4-3.321,26.907-.136,8.844-2.515,18.3-2.968,26.768-.491,9.023,8.688,13.5,7.9,21.641-.845,8.787-9.886,21.149-11.065,29.384-1.278,9.12-1.729,18.32-3.283,26.2.964,1.671,4.01-1.258,6-4.522,8-13.364-3.007-6.209.038-22.937,1.258-7.291.157-14.917,1.318-24.942.924-7.961,8.2-19.125,8.806-28.343.549-8.117,8.451-19.2,8.646-28.026.2-8.059.061-16.451-.058-25.2-.117-8.1-4.186-15.627-4.6-24.372-.393-8.256-.119-16.864-.747-25.512-.589-8.216-7.527-15.8-8.334-24.569-.785-8.433,3.6-17.453,2.693-26-.866-8.274-9.925-16.373-10.909-25.138-.982-8.58,8.59-17.1,7.608-25.523-.964-8.352.352-16.667-.59-25.1-.924-8.264-10.3-17.492-11.164-26.13-.865-8.481-4.363-17.4-5.11-26.024-.729-8.559-2.85-17.413-3.381-26.051-.552-8.649,2.045-16.55,1.729-25.12-.314-8.677,8.924-14.673,8.9-23.045-.021-8.411-10.613-20.352-10.3-29.059.314-8.737,4.736-15.981,5.424-24.53.688-8.649-5.523-20.185-4.382-28.95C1708.45,670.464,1721.441,666.928,1723.013,658.467Z" fill="#1b5b80"/>
      </g>
      <g id="Group_119" data-name="Group 119">
        <path id="Path_496" data-name="Path 496" d="M75.176,391.283c-2.014,11.6-8.008,26.475-10.268,42.375-1.8,12.708,8.362,23.115,6.948,38.486-1.238,13.374,5.327,25.993,4.667,41.078-.6,13.817-7.2,29.355-7.213,44.037-.011,13.885-7.586,29.117-7.1,43.506.463,13.807,5.14,27.595,6.024,41.992.845,13.885,9.7,27.783,10.85,42.189,1.139,14.171-11.124,28.254-9.876,42.238,1.228,13.847,16.991,28.559,18.289,42.829,1.286,14.219-5.71,27.624-4.561,41.559,1.16,14.093,3.126,28.224,4.05,42.121.934,14.131,7.026,28.952,7.6,42.886.589,14.409-17.69,24.943-17.591,38.387.117,14.111,5.513,29.285,5.06,42.866-.461,14.29,13.257,31.764,12.166,45.5-1.179,14.878-12.843,26.338-14.573,39.643-1.975,15.095-.127,27.3-2.319,40.509,3.46,6.447.7,3.637,6.249-.078,15.174-10.4,14.447-5.366,19.853-32.491,2.26-12.068-6.378-29.934-4.581-46.011,1.455-12.893,3.852-26.71,4.6-42,.66-13.346,4.2-26.829,4.128-41.825-.058-13.6,6.419-26.692,5.71-41.63-.658-13.875,1.721-27.889.521-42.729-1.149-14.133-11.419-29.344-12.953-43.89-1.483-14.092-13.433-28.754-15.133-43.062-1.671-13.966-3.194-28.079-4.963-42.407-1.729-13.974,1.71-28.431,0-42.8-1.681-14.123-4.344-28.186-5.829-42.427-1.473-14.063,5.515-29.628,4.363-43.967-1.149-14.289-9.051-27.005-9.719-41.07-.686-14.062,9.641-31.114,9.582-45.333-.048-14.338-13.738-23.979-13.128-37.727.638-14.034-1.367-26.662.048-40.284C67.512,419.871,72.82,404.814,75.176,391.283Z" fill="#0a3e5c"/>
        <path id="Path_497" data-name="Path 497" d="M105.986,211.283C103.215,225.652,95,244.078,91.9,263.772c-2.468,15.745,11.478,28.638,9.522,47.673-1.7,16.569,7.312,32.2,6.418,50.886-.825,17.12-9.886,36.361-9.906,54.543-.02,17.217-10.408,36.075-9.75,53.9.64,17.1,7.057,34.189,8.266,52.017,1.16,17.207,13.306,34.415,14.888,52.271,1.564,17.553-15.262,34.986-13.551,52.321,1.7,17.15,23.31,35.379,25.089,53.05,1.768,17.621-7.833,34.237-6.261,51.486,1.6,17.453,4.295,34.955,5.553,52.174,1.288,17.512,9.651,35.889,10.438,53.126.8,17.866-24.275,30.916-24.138,47.565.159,17.474,7.557,36.282,6.95,53.108-.64,17.689,18.18,39.347,16.686,56.35-1.612,18.456-17.63,32.627-19.989,49.117-2.713,18.712-.177,33.827-3.184,50.18,4.746,7.98.954,4.5,8.57-.1,20.813-12.875,19.82-6.644,27.241-40.233,3.106-14.958-8.767-37.089-6.29-57,2-15.979,5.288-33.1,6.31-52.046.9-16.53,5.758-33.217,5.67-51.81-.079-16.864,8.8-33.059,7.833-51.574-.906-17.2,2.357-34.533.706-52.931-1.571-17.494-15.664-36.342-17.767-54.366-2.035-17.463-18.426-35.614-20.765-53.353-2.28-17.295-4.373-34.779-6.811-52.516-2.379-17.327,2.339-35.222,0-53.03-2.3-17.484-5.955-34.907-8-52.546-2.025-17.426,7.578-36.707,6-54.475-1.572-17.7-12.412-33.452-13.346-50.876s13.237-38.544,13.159-56.155c-.069-17.768-18.849-29.7-18.014-46.738.874-17.385-1.878-33.02.069-49.894C95.48,246.692,102.754,228.039,105.986,211.283Z" fill="#0a3e5c"/>
        <path id="Path_498" data-name="Path 498" d="M154.888,246.014c2.27,12.2.334,28.578,2.652,44.057,1.9,12.6,18.515,20.056,20.127,35.133,1.407,13.149,12.138,23.28,13.1,38.109.876,13.592-6.408,30.4-6.044,44.764.355,13.6-9.375,30.564-9.493,44.627-.107,13.424,4.57,25.915,4.049,40.1-.5,13.553,8.56,25.335,7.695,39.653-.846,13.986-18.495,30.81-19.576,44.617-1.062,13.523,15.458,25.236,14.151,39.567-1.268,14.082-12.619,28.881-13.973,42.817-1.347,13.9-1.653,27.851-3.017,41.865-1.367,13.936,3.624,28.165,2.308,42.306-1.336,14.328-24.647,26.555-25.748,40.076-1.129,13.8,4.374,28.461,3.47,42.3-.914,13.877,15.33,31.114,14.7,45.265-.638,14.467-12.991,25.689-13.217,39.349-.235,14.192,5.169,29.876,5.4,43.693.226,14.387,4.108,29.737,4.845,43.5.795,14.682-14.113,21.956-12.855,35.122,1.366,14.29,16.049,34.379,17.965,47.763,2.093,14.8,2.83,29.737,5.335,42.572-1.541,2.692-6.515-2.063-9.719-7.351-12.991-21.738,4.875-10.083-.068-37.246-2.045-11.852-.266-24.273-2.152-40.509-1.5-12.951-13.307-31.093-14.31-46.069-.873-13.169-13.7-31.2-14.032-45.541-.306-13.072-.109-26.692.1-40.921.185-13.151,6.809-25.356,7.477-39.585.62-13.406.187-27.4,1.2-41.433.964-13.346,12.245-25.669,13.551-39.9,1.258-13.708-5.866-28.352-4.391-42.227,1.415-13.445,16.127-26.613,17.747-40.843,1.572-13.936-13.963-27.783-12.381-41.453,1.561-13.581-.56-27.084.962-40.774,1.495-13.422,16.717-28.421,18.142-42.453,1.386-13.769,7.086-28.244,8.284-42.268,1.179-13.9,4.629-28.274,5.512-42.318s-3.32-26.887-2.819-40.8c.5-14.092-14.485-23.831-14.455-37.433.028-13.66,17.246-33.058,16.735-47.2-.521-14.2-7.684-25.953-8.815-39.84-1.139-14.043,8.952-32.784,7.1-47.024C178.532,265.5,157.452,259.752,154.888,246.014Z" fill="#0a3e5c"/>
      </g>
      <rect id="Rectangle_27" data-name="Rectangle 27" width="1328.354" height="1106.961" transform="translate(-21.129 185.291)" fill="none"/>
      <path id="Path_499" data-name="Path 499" d="M324.217,448.077c.03-.019.068-.029.109-.049a1.485,1.485,0,0,1,.225-.05c.147-.028.3-.048.453-.068.3-.029.608-.049.914-.059.6-.04,1.207-.048,1.817-.068l1.828-.02.9-.031.453-.028a1.783,1.783,0,0,1,.226-.04c.068-.01.167-.028.177-.068h0a.528.528,0,0,0-.187-.069,1.888,1.888,0,0,1-.226-.02c-.147-.01-.294-.02-.451-.02-.306-.01-.6-.01-.9-.01h-1.838c-.61-.008-1.217-.018-1.827-.048-.3-.021-.61-.041-.9-.069a3.854,3.854,0,0,1-.463-.078.753.753,0,0,1-.215-.061c-.069-.028-.167-.078-.167-.167h.03l-.061-.008a.309.309,0,0,1,.167-.2c.069-.03.147-.058.218-.089.147-.048.294-.078.441-.118.285-.069.579-.117.875-.167l1.769-.264a24.2,24.2,0,0,0,3.488-.709,3.283,3.283,0,0,0,1.524-.825,8.753,8.753,0,0,0,.982-1.465c.58-1.03,1.091-2.113,1.632-3.184s1.091-2.121,1.711-3.134a12.971,12.971,0,0,1,1.03-1.475,5.2,5.2,0,0,1,.63-.658,3.959,3.959,0,0,1,.737-.521,29.625,29.625,0,0,1,3.262-1.494c1.112-.443,2.231-.845,3.362-1.217l.01.018c1.483-.58,3.007-1.081,4.53-1.542,1.542-.443,3.1-.815,4.657-1.151.787-.167,1.572-.3,2.359-.431s1.592-.246,2.389-.334a20.641,20.641,0,0,1,4.865-.139,6.564,6.564,0,0,1,2.427.757,3.939,3.939,0,0,1,1.023.825,4.378,4.378,0,0,1,.706,1.121,6.278,6.278,0,0,1,.433,2.5c-.01.825-.1,1.612-.187,2.417-.2,1.592-.461,3.176-.8,4.738-.355,1.551-.739,3.105-1.142,4.639h0l.375.274.01.01h0l.678.5c.236-.334.5-.648.747-.962l.775-.934c.531-.62,1.091-1.21,1.622-1.818l1.67-1.759.413-.432a1.789,1.789,0,0,1,.5-.423,1.433,1.433,0,0,1,1.248-.068v.008h0l.02-.069a3.08,3.08,0,0,1,1.19.65,5.926,5.926,0,0,1,.9,1.021,9.96,9.96,0,0,1,1.18,2.409,15.4,15.4,0,0,1,.718,5.295,12.451,12.451,0,0,1-1.346,5.171,10.414,10.414,0,0,1-1.544,2.2,7.857,7.857,0,0,1-.992.913,3.768,3.768,0,0,1-1.19.648l-.03-.088.01.02a.846.846,0,0,1-.658-.177,4.324,4.324,0,0,1-.539-.413,12.452,12.452,0,0,1-.924-.974c-.582-.678-1.073-1.415-1.584-2.141-.471-.757-.942-1.5-1.365-2.281l-.61-1.179c-.187-.4-.374-.785-.541-1.19v.01a2.518,2.518,0,0,0-1.071.157l-.028.011a14.408,14.408,0,0,1,1.286,2.831c.109.284.177.58.266.874h0a16.761,16.761,0,0,1,.521,2.192,11.668,11.668,0,0,1,.157,3.153c-.01.079-.03.157-.048.238a.139.139,0,0,1,.058.018c-.02-.01-.04-.01-.058-.018a3.581,3.581,0,0,1-.415,1.3,1.969,1.969,0,0,1-1.286.886,7.325,7.325,0,0,1-3.164-.061,14.476,14.476,0,0,1-3.017-.972,14.883,14.883,0,0,1-5.051-3.617c-.365.049-.737.109-1.111.137a9.072,9.072,0,0,0,2.211,4.04,13.467,13.467,0,0,0,1.719,1.622c.314.245.62.481.944.706l.481.344.246.178.119.088c.028.04.1.059.088.147l-.03-.01.02.01c-.068.05-.137.03-.207.04-.049-.01-.127-.01-.177-.02l-.383-.058c-.255-.059-.5-.119-.747-.177-.49-.137-.982-.286-1.465-.433-.962-.314-1.926-.668-2.86-1.061a28.513,28.513,0,0,1-2.731-1.366,13.32,13.32,0,0,1-1.622-1.17c-.157-.147-.314-.285-.451-.432a3.511,3.511,0,0,1-.276-.256l-.01.01v-.02a.035.035,0,0,1-.02-.01c-.235.119-.461.227-.706.334a.127.127,0,0,1-.059.01v.01h-.01a1.434,1.434,0,0,1-.7.119,2.153,2.153,0,0,1-1.316-.825c-.069-.079-.1-.177-.167-.256a6.925,6.925,0,0,1-.552-.875c-.106-.216-.215-.433-.314-.659-.03-.068-.058-.146-.088-.215-.089-.207-.178-.414-.256-.63l-.01.02c-.393-.118-.785-.245-1.18-.384h0v.01a.009.009,0,0,0-.009-.01c-.669-.236-1.317-.481-1.965-.765-.511-.237-1.012-.483-1.5-.749s-.954-.559-1.415-.883a2.96,2.96,0,0,1-2.005-.226,11.21,11.21,0,0,1-1.809-.974l-1.729-1.111a7.1,7.1,0,0,0-1.838-.883,26.34,26.34,0,0,0-4.049-.638l-2.035-.218c-.344-.048-.688-.088-1.032-.137-.157-.03-.335-.058-.5-.1a1.709,1.709,0,0,1-.245-.079c-.079-.03-.185-.058-.216-.167l.021-.01h-.021A.153.153,0,0,1,324.217,448.077Zm49.6,9.326a.145.145,0,0,0,.03.02A.145.145,0,0,1,373.815,457.4Zm-23.979,1.043v-.01c-.028.02-.058.028-.088.048.03-.01.06-.028.088-.038Zm24.323-.964h0Z" fill="#0a324a"/>
      <path id="Path_500" data-name="Path 500" d="M252.22,337.783c.02-.008.031-.018.051-.028a.47.47,0,0,1,.116-.02,1.463,1.463,0,0,1,.228-.039l.461-.03c.306-.02.61-.02.913-.03l.914-.01c.149-.01.306-.01.453-.018a1.7,1.7,0,0,0,.225-.02c.041,0,.079-.01.119-.01s.079-.02.089-.041h0a.158.158,0,0,0-.1-.028.364.364,0,0,0-.109-.01c-.078-.01-.157-.01-.235-.02h-1.367c-.3-.01-.618-.01-.923-.03a3.41,3.41,0,0,1-.451-.028,1.764,1.764,0,0,1-.236-.041c-.03-.01-.07-.018-.108-.028s-.079-.04-.079-.088h-.02c.01-.061.058-.079.089-.1a.472.472,0,0,1,.108-.04.962.962,0,0,1,.216-.058c.146-.041.295-.059.442-.089l.894-.137a11.657,11.657,0,0,0,1.749-.354,1.543,1.543,0,0,0,.757-.413,3.943,3.943,0,0,0,.5-.736c.286-.522.541-1.063.817-1.592s.539-1.063.853-1.574a6.635,6.635,0,0,1,.522-.747,2.482,2.482,0,0,1,.316-.324,1.911,1.911,0,0,1,.372-.266,16.948,16.948,0,0,1,1.632-.746c.56-.226,1.119-.423,1.689-.61v.01c.749-.294,1.513-.54,2.28-.775.767-.217,1.544-.413,2.331-.572.4-.088.795-.157,1.187-.225s.8-.117,1.2-.167a10.59,10.59,0,0,1,2.437-.069,3.26,3.26,0,0,1,1.218.383,2.009,2.009,0,0,1,.865.974,3.071,3.071,0,0,1,.218,1.248c0,.412-.051.815-.089,1.218-.1.8-.237,1.592-.4,2.378s-.363,1.552-.57,2.329h0l.187.139h.01l.334.256c.117-.167.256-.326.373-.483l.394-.471c.266-.314.54-.61.815-.914l.835-.886.208-.215a1.1,1.1,0,0,1,.255-.207.7.7,0,0,1,.618-.039v.01h0l.01-.04a1.508,1.508,0,0,1,.6.334,2.447,2.447,0,0,1,.453.5,5.2,5.2,0,0,1,.6,1.21,7.881,7.881,0,0,1,.354,2.663,6.31,6.31,0,0,1-.678,2.594,4.963,4.963,0,0,1-.767,1.1,4.345,4.345,0,0,1-.5.461,1.855,1.855,0,0,1-.6.326l-.008-.05v.02a.429.429,0,0,1-.326-.1,1.878,1.878,0,0,1-.274-.2,5.876,5.876,0,0,1-.463-.483c-.294-.344-.539-.717-.795-1.081-.235-.372-.473-.757-.688-1.139l-.3-.6c-.089-.2-.187-.392-.266-.59h0a1.264,1.264,0,0,0-.541.089h-.02a7.055,7.055,0,0,1,.65,1.415,3.955,3.955,0,0,1,.137.443h0a10.208,10.208,0,0,1,.265,1.1,6.109,6.109,0,0,1,.069,1.582.47.47,0,0,1-.02.116l.03.01-.03-.01a1.867,1.867,0,0,1-.206.65.994.994,0,0,1-.648.451,3.964,3.964,0,0,1-1.594-.028,8.157,8.157,0,0,1-1.5-.491,7.318,7.318,0,0,1-2.534-1.82,5.1,5.1,0,0,1-.562.069,4.466,4.466,0,0,0,1.111,2.025,6.1,6.1,0,0,0,.856.815,5.03,5.03,0,0,0,.481.354l.245.177.119.089.058.04c.01.018.051.028.041.078l-.01-.01.01.01a.133.133,0,0,1-.1.019c-.03,0-.068-.009-.1-.009l-.187-.03c-.127-.03-.255-.058-.372-.088-.246-.069-.491-.137-.739-.216-.491-.159-.962-.344-1.433-.541a11.062,11.062,0,0,1-1.366-.678,6.685,6.685,0,0,1-.815-.59,2.432,2.432,0,0,1-.238-.215c-.038-.041-.088-.079-.137-.129h0l-.01-.01c-.117.06-.235.108-.354.167-.01,0-.018.01-.028.01h-.01a.7.7,0,0,1-.344.06,1.1,1.1,0,0,1-.669-.414c-.03-.039-.05-.087-.078-.127a3.063,3.063,0,0,1-.276-.443,3.208,3.208,0,0,1-.157-.334c-.02-.028-.03-.068-.048-.1-.04-.106-.089-.215-.129-.314h0a5.906,5.906,0,0,1-.59-.187h-.01a10.519,10.519,0,0,1-.982-.382c-.256-.119-.511-.246-.757-.375s-.481-.283-.708-.44a1.559,1.559,0,0,1-1.011-.119,5.682,5.682,0,0,1-.9-.491l-.864-.56a3.612,3.612,0,0,0-.923-.442,13.746,13.746,0,0,0-2.035-.314l-1.023-.109c-.167-.03-.344-.048-.511-.069-.088-.02-.177-.03-.256-.05-.038-.01-.088-.028-.126-.038s-.089-.03-.109-.089h0A.085.085,0,0,1,252.22,337.783Zm24.885,4.679.018.011Zm-12.03.52h0c-.01.01-.028.01-.048.02.02-.01.038-.01.048-.02Zm12.207-.481h0Z" fill="#0f586e"/>
      <path id="Path_501" data-name="Path 501" d="M1846.884,259.455a.33.33,0,0,1,.119-.048,1.429,1.429,0,0,1,.215-.058,3.393,3.393,0,0,1,.453-.061c.3-.028.62-.048.914-.068.61-.028,1.219-.038,1.827-.059l1.82-.02c.3-.01.608-.02.9-.028.158-.01.3-.02.461-.04l.218-.03c.068-.018.167-.029.187-.079h0a.57.57,0,0,0-.187-.058,1.722,1.722,0,0,0-.228-.02l-.461-.029c-.3-.01-.6-.01-.9-.01h-1.828c-.61-.01-1.219-.02-1.829-.05-.3-.01-.608-.028-.914-.058-.157-.02-.3-.049-.461-.079-.068-.02-.139-.03-.217-.058-.059-.04-.157-.079-.157-.167l.02-.01h-.059a.318.318,0,0,1,.178-.2,1.007,1.007,0,0,1,.215-.089c.137-.048.286-.079.433-.117.293-.07.589-.119.883-.167l1.769-.266a24.691,24.691,0,0,0,3.49-.708,3.286,3.286,0,0,0,1.522-.825,8.929,8.929,0,0,0,.984-1.465c.57-1.041,1.091-2.112,1.62-3.184s1.091-2.122,1.721-3.144a11.366,11.366,0,0,1,1.022-1.465,5.776,5.776,0,0,1,.629-.659,3.854,3.854,0,0,1,.746-.521,29.93,29.93,0,0,1,3.253-1.493c1.111-.441,2.232-.845,3.371-1.218l.01.02c1.483-.589,3-1.083,4.53-1.543q2.3-.665,4.66-1.15c.785-.167,1.571-.316,2.356-.442s1.584-.236,2.389-.335a20.94,20.94,0,0,1,4.855-.136,6.812,6.812,0,0,1,2.427.756,4.194,4.194,0,0,1,1.033.826,4.1,4.1,0,0,1,.7,1.129,6.3,6.3,0,0,1,.431,2.487,20.076,20.076,0,0,1-.185,2.418c-.187,1.6-.463,3.173-.787,4.735-.354,1.564-.737,3.106-1.139,4.65h-.01l.382.275.01.008h0l.678.493c.226-.326.491-.64.737-.954l.787-.944c.529-.609,1.081-1.2,1.612-1.807l1.67-1.759.423-.433a1.7,1.7,0,0,1,.491-.422,1.4,1.4,0,0,1,1.248-.069h.01l.01-.068a2.922,2.922,0,0,1,1.188.658,5.458,5.458,0,0,1,.905,1.012,9.687,9.687,0,0,1,1.188,2.418,15.314,15.314,0,0,1,.708,5.3,12.459,12.459,0,0,1-1.346,5.168,10.61,10.61,0,0,1-1.534,2.2,7.936,7.936,0,0,1-.992.914,3.566,3.566,0,0,1-1.2.638l-.018-.079v.021a.869.869,0,0,1-.65-.178,5.7,5.7,0,0,1-.549-.412c-.324-.3-.628-.638-.924-.972-.57-.689-1.071-1.425-1.582-2.154-.463-.746-.944-1.5-1.357-2.28l-.619-1.18c-.176-.392-.373-.774-.53-1.187v.018a2.381,2.381,0,0,0-1.081.159.038.038,0,0,1-.02.008,15.807,15.807,0,0,1,1.288,2.822c.1.294.176.59.264.873l.01.01-.01-.01a21.042,21.042,0,0,1,.521,2.192,11.725,11.725,0,0,1,.147,3.164c-.008.081-.028.159-.038.238a.162.162,0,0,1,.058.018.162.162,0,0,0-.058-.018,3.462,3.462,0,0,1-.413,1.286,1.975,1.975,0,0,1-1.3.9,7.456,7.456,0,0,1-3.164-.06,14.64,14.64,0,0,1-3.007-.972,14.838,14.838,0,0,1-5.051-3.617c-.373.05-.737.109-1.111.137a9.165,9.165,0,0,0,2.2,4.039,14.014,14.014,0,0,0,1.72,1.612c.314.256.628.492.942.719l.491.342.238.177.117.089c.04.03.108.05.088.139l-.02-.01.01.01c-.058.058-.127.038-.2.048-.061-.01-.129-.01-.187-.02-.129-.02-.256-.038-.385-.069-.245-.048-.491-.108-.736-.177-.5-.127-.982-.275-1.464-.432-.974-.3-1.926-.669-2.859-1.061a22.71,22.71,0,0,1-2.734-1.367,11.667,11.667,0,0,1-1.62-1.169,5.889,5.889,0,0,1-.463-.423c-.078-.088-.187-.157-.274-.255h0l-.01-.01c0-.008-.01-.008-.01-.008-.235.106-.473.215-.708.324-.02.01-.038.01-.058.018l-.011.01h-.01a1.538,1.538,0,0,1-.7.119,2.182,2.182,0,0,1-1.316-.826c-.059-.078-.1-.177-.157-.255a7.7,7.7,0,0,1-.55-.876c-.119-.215-.217-.441-.326-.668-.028-.068-.048-.137-.078-.205-.089-.218-.185-.423-.264-.63l-.01.01c-.4-.109-.777-.246-1.169-.373h-.01l-.01-.01c-.659-.227-1.317-.473-1.957-.766-.511-.228-1.022-.473-1.5-.737a15.268,15.268,0,0,1-1.415-.886,3.03,3.03,0,0,1-2.015-.225,13.644,13.644,0,0,1-1.807-.982l-1.721-1.111a7,7,0,0,0-1.838-.876,26.817,26.817,0,0,0-4.049-.638l-2.043-.225c-.344-.04-.678-.081-1.022-.139-.167-.028-.344-.058-.512-.089-.078-.02-.157-.048-.245-.078-.069-.03-.177-.058-.207-.167l.02-.01h-.02C1846.806,259.506,1846.856,259.475,1846.884,259.455Zm49.61,9.327c.01,0,.02.01.028.02C1896.514,268.792,1896.5,268.782,1896.494,268.782Zm-23.979,1.032h0a.391.391,0,0,1-.088.039.414.414,0,0,0,.078-.029v-.01Zm24.323-.954h0Z" fill="#0a324a"/>
      <path id="Path_502" data-name="Path 502" d="M1846.717,378.3c-.01-.039.02-.079.01-.107s-.028-.04-.038-.071a.858.858,0,0,0-.187-.313.671.671,0,0,0-.089-.089,1.429,1.429,0,0,0-.324-.215h-.01a2.578,2.578,0,0,0,.511-.61,1.125,1.125,0,0,0,.167-.805.883.883,0,0,0-.3-.473v-.01a1.084,1.084,0,0,0-.205-.167,1.446,1.446,0,0,0-.374-.127c-.028-.01-.038-.03-.069-.04l-.364-.687h-.028c-.256-.483-.511-.954-.787-1.417a28.173,28.173,0,0,0-2.81-4.087,27.121,27.121,0,0,0-3.647-3.508c-.314-.266-.638-.522-.962-.767-.306-.226-.571-.471-.865-.689-.334-.225-.708-.4-1.051-.617-.316-.2-.64-.385-.954-.562-.354-.2-.688-.441-1.052-.628-.175-.334-.353-.678-.54-1.022-.286-.443-.569-.884-.875-1.317a17.628,17.628,0,0,0-2.112-2.4,12.478,12.478,0,0,0-2.664-1.8,10.118,10.118,0,0,0-1.514-.56,7.974,7.974,0,0,0-1.582-.237l-.01.02-.01.01a4.18,4.18,0,0,1,.334.6,4.525,4.525,0,0,0-.461-.413,3.815,3.815,0,0,0-1.306-.521,2.3,2.3,0,0,0-1.377.137v.01h0v.01l-.01.01c.119.276.256.511.345.777v.02a3.322,3.322,0,0,0-.62-.423,3.181,3.181,0,0,0-1.337-.326,2.219,2.219,0,0,0-1.286.345v.03h0a2.915,2.915,0,0,1,.451.638,2.16,2.16,0,0,1,.177.511l-.117-.117a3.332,3.332,0,0,0-1.052-.531,3.241,3.241,0,0,0-1.16-.127,2.21,2.21,0,0,0-1.1.362v.02l-.011.011h0v.01c.079.255.178.5.246.766.03.089.079.167.109.246a3.208,3.208,0,0,0-.815-.364,3.059,3.059,0,0,0-.995-.089,1.91,1.91,0,0,0-.941.286v.028h0l-.011.01h0v.01a5.043,5.043,0,0,1,.461,1.081,3.156,3.156,0,0,0-.668-.256,3.042,3.042,0,0,0-1.109-.01,2.06,2.06,0,0,0-.994.453v.02l-.018.01.01.008h-.01c.2.4.334.808.549,1.21a1.2,1.2,0,0,0-.245-.088,1.633,1.633,0,0,0-.757.068,1.068,1.068,0,0,0-.62.473l.01.018h-.018a1.789,1.789,0,0,0,.284.974,3.553,3.553,0,0,0,.668.757,8.119,8.119,0,0,0,1.415.924c-.864.382-1.7.815-2.534,1.248-.207-.335-.4-.669-.6-.993l-.7-1.2a6.7,6.7,0,0,0-.924-1.18,2.368,2.368,0,0,0-1.6-.648,3.992,3.992,0,0,0-1.572.314,11.654,11.654,0,0,0-1.326.6c-.836.453-1.623.944-2.41,1.463a14.892,14.892,0,0,0-4.156,3.923,5.154,5.154,0,0,0-.638,1.375,3.89,3.89,0,0,0-.149,1.543,4.026,4.026,0,0,0,.5,1.4,4.509,4.509,0,0,0,.846,1.053c-.256.137-.491.294-.757.43a.67.67,0,0,1-.127.061,9.863,9.863,0,0,1-4.816,1.129,6.54,6.54,0,0,1-1.218-.187,7.2,7.2,0,0,1-1.209-.413c-.236-.107-.461-.2-.689-.284a11.791,11.791,0,0,0-1.5-.5h0l.01-.03a4.648,4.648,0,0,0-1.66-.382,2.29,2.29,0,0,0-.914.167,2.044,2.044,0,0,0-.8.618,3.507,3.507,0,0,0-.56,1.789,9.491,9.491,0,0,0,.049,1.749,7.846,7.846,0,0,0,.364,1.721,5.751,5.751,0,0,1,.306,1.453,20.332,20.332,0,0,1-.1,3.166,8.435,8.435,0,0,0,.433,3.556,6.614,6.614,0,0,0,2.073,2.949,4.5,4.5,0,0,0,3.44,1.07,3.506,3.506,0,0,0,1.64-.736,5.447,5.447,0,0,0,1.091-1.307l-.039-.03v-.01h0c.226-.276.451-.579.669-.883.334-.463.658-.964.982-1.456.276-.4.549-.8.835-1.189,1.268-1.681,2.761-3.007,5.1-2.614a5.265,5.265,0,0,0-.539,1.406,6.166,6.166,0,0,0-.149,1.542,5.281,5.281,0,0,0,.364,1.572,4.936,4.936,0,0,0,.856,1.387,6.536,6.536,0,0,0,2.652,1.817,10.141,10.141,0,0,0,3.086.59,15.091,15.091,0,0,0,3.067-.205,19.776,19.776,0,0,0,2.918-.757,23.042,23.042,0,0,0,2.772-1.141,26.749,26.749,0,0,0,2.467-1.445c.53.07,1.061.108,1.6.159a7.973,7.973,0,0,0,1.719,3.606,5.179,5.179,0,0,0,.777.775l.195.157c.089.071.159.109.238.167a3.816,3.816,0,0,0,.519.3,3.178,3.178,0,0,0,1.22.286,4.151,4.151,0,0,0,1.207-.167,9.75,9.75,0,0,0,3.47-2.331,18.774,18.774,0,0,0,2.536-2.977,37.892,37.892,0,0,0,4.049-.658,22.335,22.335,0,0,0,5.483-1.936,15.3,15.3,0,0,0,3.381-2.379h.01l.079-.078a12.047,12.047,0,0,0,1.081-1.13l-.011-.01v-.01c.079-.01.147-.01.226-.02a5.3,5.3,0,0,0,.964-.215,1.818,1.818,0,0,0,.865-.483,1.316,1.316,0,0,0,.254-.686A.8.8,0,0,0,1846.717,378.3Zm-47.317,3.017v.01l-.041-.01Z" fill="#0a324a"/>
      <path id="Path_503" data-name="Path 503" d="M545.2,384.417v-.069a.069.069,0,0,1-.02-.038.337.337,0,0,0-.117-.187c-.02-.02-.02-.041-.06-.059a1,1,0,0,0-.177-.128H544.8a1.656,1.656,0,0,0,.314-.375.715.715,0,0,0,.1-.491.588.588,0,0,0-.177-.284h0a1.155,1.155,0,0,0-.118-.108c-.079-.039-.158-.049-.236-.079-.02,0-.02-.01-.04-.02l-.216-.413h-.02c-.157-.293-.314-.579-.471-.855a17.415,17.415,0,0,0-1.71-2.486,16.406,16.406,0,0,0-2.22-2.133c-.2-.157-.375-.314-.59-.461-.177-.137-.334-.286-.511-.413-.218-.146-.433-.245-.648-.384-.178-.117-.375-.225-.572-.342-.215-.119-.413-.266-.628-.374-.119-.208-.217-.413-.334-.62-.177-.274-.354-.54-.531-.8a10.726,10.726,0,0,0-1.3-1.456,7.533,7.533,0,0,0-1.613-1.09,7.747,7.747,0,0,0-.923-.335,4.561,4.561,0,0,0-.944-.146v.01l-.021.01a3.371,3.371,0,0,1,.218.362,2.606,2.606,0,0,0-.3-.246,2.138,2.138,0,0,0-.785-.314,1.41,1.41,0,0,0-.845.079v.01h0v.01a4,4,0,0,1,.215.471v.01a2.816,2.816,0,0,0-.372-.256,1.982,1.982,0,0,0-.807-.195,1.313,1.313,0,0,0-.785.206v.02h0a1.974,1.974,0,0,1,.273.382,1.592,1.592,0,0,1,.1.316.274.274,0,0,0-.078-.07,1.745,1.745,0,0,0-.628-.324,1.893,1.893,0,0,0-.709-.079,1.35,1.35,0,0,0-.668.217v.019h0v.01c.04.157.1.306.137.463a1.527,1.527,0,0,1,.078.157,1.926,1.926,0,0,0-.509-.226,1.748,1.748,0,0,0-.59-.06,1.227,1.227,0,0,0-.571.177v.02h0l-.018.01a2.538,2.538,0,0,1,.293.658,1.813,1.813,0,0,0-.412-.157,1.67,1.67,0,0,0-.668,0,1.28,1.28,0,0,0-.61.266v.018h0v.01c.119.238.2.483.334.729-.058-.01-.1-.041-.157-.051a.982.982,0,0,0-.451.041.6.6,0,0,0-.374.283v.02h-.02a1.169,1.169,0,0,0,.177.58,2.134,2.134,0,0,0,.412.463,4.431,4.431,0,0,0,.846.56c-.512.235-1.023.5-1.534.756-.117-.2-.235-.4-.352-.6l-.433-.727a4.4,4.4,0,0,0-.551-.719,1.522,1.522,0,0,0-.983-.392,2.352,2.352,0,0,0-.943.187,6.5,6.5,0,0,0-.806.372c-.511.276-.982.572-1.473.886a9.023,9.023,0,0,0-2.516,2.379,3.688,3.688,0,0,0-.394.835,2.505,2.505,0,0,0-.079.932,2.457,2.457,0,0,0,.3.856,2.728,2.728,0,0,0,.511.64c-.158.078-.3.177-.452.263a.279.279,0,0,0-.079.04,6.065,6.065,0,0,1-2.928.679,3.72,3.72,0,0,1-.729-.119,4.3,4.3,0,0,1-.747-.246c-.136-.068-.273-.116-.412-.177-.334-.126-.628-.225-.9-.3h0v-.02a2.906,2.906,0,0,0-1-.225,1.363,1.363,0,0,0-.55.1,1.129,1.129,0,0,0-.493.383,2.033,2.033,0,0,0-.334,1.081,4.95,4.95,0,0,0,.02,1.062,5.983,5.983,0,0,0,.218,1.041,3.066,3.066,0,0,1,.2.885,12.693,12.693,0,0,1-.058,1.917,5.068,5.068,0,0,0,.255,2.161,4.035,4.035,0,0,0,1.258,1.789,2.729,2.729,0,0,0,2.083.648,2.087,2.087,0,0,0,1-.442,4.018,4.018,0,0,0,.669-.8l-.039-.02h.019v-.011c.118-.167.255-.344.394-.531.2-.284.392-.58.608-.883.159-.246.334-.492.493-.717a3.119,3.119,0,0,1,3.106-1.594,3.178,3.178,0,0,0-.335.855,4.89,4.89,0,0,0-.1.944,3.239,3.239,0,0,0,.235.944,2.838,2.838,0,0,0,.511.846,3.969,3.969,0,0,0,1.613,1.1,6.131,6.131,0,0,0,1.865.362,9.751,9.751,0,0,0,1.868-.127,13.517,13.517,0,0,0,3.44-1.151,16.545,16.545,0,0,0,1.513-.884c.314.049.628.069.962.109a5.012,5.012,0,0,0,1.043,2.182,3.614,3.614,0,0,0,.471.471l.119.1c.058.038.1.059.157.1a2.3,2.3,0,0,0,.295.177,2,2,0,0,0,.747.177,2.753,2.753,0,0,0,.747-.1,6.12,6.12,0,0,0,2.1-1.425,11.211,11.211,0,0,0,1.532-1.8,22.62,22.62,0,0,0,2.457-.4,13.826,13.826,0,0,0,3.323-1.17,9.678,9.678,0,0,0,2.063-1.445h0l.038-.048a8.9,8.9,0,0,0,.67-.688l-.02-.011h0a.638.638,0,0,1,.137-.01,5.065,5.065,0,0,0,.59-.126,1.121,1.121,0,0,0,.531-.306.95.95,0,0,0,.157-.413Zm-28.716,1.827v.01l-.018-.01Z" fill="#125b87"/>
    </g>
  </g>
</svg>
