<svg xmlns="http://www.w3.org/2000/svg" width="53" height="69.58" viewBox="0 0 53 69.58">
  <g id="alkimia" transform="translate(-1989 -1071)">
    <path id="Path_458" data-name="Path 458" d="M2067.708,1180.79l-10.274,4.077-15.492-4.689-11.416-3.465-10.926-4.077a26.741,26.741,0,0,1,8.072-8.073V1146h28.539v18.563a26.485,26.485,0,0,1,11.5,16.226Z" transform="translate(-26.442 -64.808)" fill="#e7e7f2"/>
    <path id="Path_459" data-name="Path 459" d="M2209.766,1180.79l-10.274,4.077L2184,1180.178V1146h14.269v18.563A26.485,26.485,0,0,1,2209.766,1180.79Z" transform="translate(-168.5 -64.808)" fill="#cecee6"/>
    <path id="Path_460" data-name="Path 460" d="M2042,1356.269a26.724,26.724,0,0,1-6.768,17.789,2.041,2.041,0,0,1-1.549.693h-36.367a1.957,1.957,0,0,1-1.508-.693,26.562,26.562,0,0,1-6.808-17.789,26.142,26.142,0,0,1,2.038-10.192,27.68,27.68,0,0,1,2.12-4.077h10.926a25.644,25.644,0,0,1,11.415,2.65,24.168,24.168,0,0,1,3.18,1.753,22.1,22.1,0,0,0,12.312,3.751h10.274a26.534,26.534,0,0,1,.652,4.077c.041.652.082,1.345.082,2.038Z" transform="translate(0 -234.172)" fill="#979fef"/>
    <path id="Path_461" data-name="Path 461" d="M2210.5,1373.118a26.724,26.724,0,0,1-6.768,17.789,2.041,2.041,0,0,1-1.549.693H2184v-30.1a24.176,24.176,0,0,1,3.18,1.753,22.1,22.1,0,0,0,12.312,3.751h10.274a26.506,26.506,0,0,1,.652,4.077c.041.652.082,1.345.082,2.038Z" transform="translate(-168.5 -251.021)" fill="#6b77e8"/>
    <path id="Path_462" data-name="Path 462" d="M2055.115,1414.231a6.115,6.115,0,1,1,6.116-6.115A6.122,6.122,0,0,1,2055.115,1414.231Z" transform="translate(-51.846 -286.018)" fill="#6b77e8"/>
    <circle id="Ellipse_7" data-name="Ellipse 7" cx="2.038" cy="2.038" r="2.038" transform="translate(2025.692 1128.213)" fill="#615ad3"/>
    <circle id="Ellipse_8" data-name="Ellipse 8" cx="2.038" cy="2.038" r="2.038" transform="translate(2017.538 1120.059)" fill="#615ad3"/>
    <path id="Path_463" data-name="Path 463" d="M2173.077,1494.038a2.038,2.038,0,1,1-2.038-2.038A2.019,2.019,0,0,1,2173.077,1494.038Z" transform="translate(-155.538 -363.787)" fill="#6b77e8"/>
    <path id="Path_464" data-name="Path 464" d="M2129.377,1073.528l-1.875,7.665h-16.471l-1.875-7.665a1.942,1.942,0,0,1,.367-1.753,2.01,2.01,0,0,1,1.59-.775h16.308a2.009,2.009,0,0,1,1.59.775,1.94,1.94,0,0,1,.367,1.753Z" transform="translate(-103.766)" fill="#725d57"/>
    <path id="Path_465" data-name="Path 465" d="M2192.236,1081.192H2184V1071h8.154a2.009,2.009,0,0,1,1.59.775,1.941,1.941,0,0,1,.367,1.753Z" transform="translate(-168.5)" fill="#53433f"/>
    <path id="Path_466" data-name="Path 466" d="M2186.038,1494.038a2.019,2.019,0,0,1-2.038,2.038V1492A2.018,2.018,0,0,1,2186.038,1494.038Z" transform="translate(-168.5 -363.787)" fill="#615ad3"/>
    <path id="Path_467" data-name="Path 467" d="M2139.87,1146l-2.2,8.643a2.009,2.009,0,0,1-1.957,1.549h-8.154a2.01,2.01,0,0,1-1.957-1.549l-2.2-8.643Z" transform="translate(-116.134 -64.808)" fill="#cecee6"/>
    <path id="Path_468" data-name="Path 468" d="M2192.236,1146l-2.2,8.643a2.009,2.009,0,0,1-1.957,1.549H2184V1146Z" transform="translate(-168.501 -64.808)" fill="#adadcc"/>
    <path id="Path_469" data-name="Path 469" d="M2085.692,1133.038a2.019,2.019,0,0,1-2.039,2.038h-32.615a2.038,2.038,0,1,1,0-4.077h32.615A2.019,2.019,0,0,1,2085.692,1133.038Z" transform="translate(-51.846 -51.846)" fill="#f2f2f2"/>
    <path id="Path_470" data-name="Path 470" d="M2202.346,1133.038a2.019,2.019,0,0,1-2.039,2.038H2184V1131h16.308A2.019,2.019,0,0,1,2202.346,1133.038Z" transform="translate(-168.5 -51.846)" fill="#e7e7f2"/>
  </g>
</svg>
