<svg xmlns="http://www.w3.org/2000/svg" xmlns:xlink="http://www.w3.org/1999/xlink" width="86.042" height="86.082" viewBox="0 0 86.042 86.082">
  <defs>
    <clipPath id="clip-path">
      <path id="Path_474" data-name="Path 474" d="M2011.785-213.384,2037.1-211.1a4.922,4.922,0,0,0,4.117-2.669l9.2-20.549a4.92,4.92,0,0,1,9.3,2.082l.662,20.21a4.921,4.921,0,0,0,4.278,4.717l24.226,3.18a4.92,4.92,0,0,1,.435,9.68l-18.358,4.108a4.92,4.92,0,0,0-3.576,6.407l9.134,26.456a4.92,4.92,0,0,1-8.5,4.668L2051.728-173.3a4.92,4.92,0,0,0-7.4-.35l-16.6,17.251a4.92,4.92,0,0,1-8.092-5.292l10-24.509a4.921,4.921,0,0,0-2.354-6.286l-17.429-11.584A4.92,4.92,0,0,1,2011.785-213.384Z" transform="translate(-2007.121 237)" fill="#e79200"/>
    </clipPath>
  </defs>
  <g id="vizalatti_harcmuveszetek" data-name="vizalatti harcmuveszetek" transform="translate(-2007.121 237)">
    <g id="Group_114" data-name="Group 114" transform="translate(2007.121 -237)">
      <path id="Path_471" data-name="Path 471" d="M2011.785-213.384,2037.1-211.1a4.922,4.922,0,0,0,4.117-2.669l9.2-20.549a4.92,4.92,0,0,1,9.3,2.082l.662,20.21a4.921,4.921,0,0,0,4.278,4.717l24.226,3.18a4.92,4.92,0,0,1,.435,9.68l-18.358,4.108a4.92,4.92,0,0,0-3.576,6.407l9.134,26.456a4.92,4.92,0,0,1-8.5,4.668L2051.728-173.3a4.92,4.92,0,0,0-7.4-.35l-16.6,17.251a4.92,4.92,0,0,1-8.092-5.292l10-24.509a4.921,4.921,0,0,0-2.354-6.286l-17.429-11.584A4.92,4.92,0,0,1,2011.785-213.384Z" transform="translate(-2007.121 237)" fill="#e79200"/>
      <g id="Group_113" data-name="Group 113" clip-path="url(#clip-path)">
        <path id="Path_472" data-name="Path 472" d="M2005.226-165.582l-32.089,43.775-43.488-16.022,23.633-54.108,48.095,16.581C2005.138-173.72,2008.15-169.934,2005.226-165.582Z" transform="translate(-1967.314 213.846)" fill="#cf6800"/>
        <path id="Path_473" data-name="Path 473" d="M2135.457-249.986l-32.7,4.97-3.3,32.51a34.569,34.569,0,0,0,3.1,18.374l20.523,39.053,28.346-3.038Z" transform="translate(-2054.465 243.672)" fill="#ffbc00"/>
      </g>
    </g>
    <path id="Path_475" data-name="Path 475" d="M2072.443-168.489l7.247,1.576a1.23,1.23,0,0,0,1.43-.819l2.212-6.75a1.23,1.23,0,0,1,2.4.36l.141,7.412a1.229,1.229,0,0,0,1.3,1.2l5.846-.324a1.23,1.23,0,0,1,.444,2.4l-5.9,1.9a1.23,1.23,0,0,0-.737,1.694l2.782,5.921a1.186,1.186,0,0,1-1.984,1.264l-4.268-5.117a1.23,1.23,0,0,0-1.8-.1l-4.212,4.028a1.23,1.23,0,0,1-1.911-1.512l2.913-4.961a1.23,1.23,0,0,0-.38-1.647l-6.468-4.3A1.23,1.23,0,0,1,2072.443-168.489Z" transform="translate(-32.795 -31.688)" fill="#fff"/>
    <path id="Path_476" data-name="Path 476" d="M2081.182-172.024a2.271,2.271,0,0,1,1.177,2.989,2.271,2.271,0,0,1-2.988,1.177,2.271,2.271,0,0,1-1.177-2.989A2.271,2.271,0,0,1,2081.182-172.024Z" transform="translate(-36.422 -33.289)" fill="#fff"/>
    <path id="Path_477" data-name="Path 477" d="M2100.2-185.451a1.419,1.419,0,0,1,.736,1.868,1.418,1.418,0,0,1-1.868.735,1.419,1.419,0,0,1-.735-1.867A1.419,1.419,0,0,1,2100.2-185.451Z" transform="translate(-46.805 -26.426)" fill="#fff"/>
    <path id="Path_478" data-name="Path 478" d="M2071.777-144.991a1.562,1.562,0,0,1,.809,2.055,1.562,1.562,0,0,1-2.054.809,1.562,1.562,0,0,1-.81-2.054A1.562,1.562,0,0,1,2071.777-144.991Z" transform="translate(-32.099 -47.209)" fill="#fff"/>
    <path id="Path_479" data-name="Path 479" d="M2096.722-128.89a1.278,1.278,0,0,1,.662,1.681,1.278,1.278,0,0,1-1.681.662,1.276,1.276,0,0,1-.661-1.681A1.277,1.277,0,0,1,2096.722-128.89Z" transform="translate(-45.121 -55.495)" fill="#fff"/>
    <path id="Path_480" data-name="Path 480" d="M2114.752-145.246a1.846,1.846,0,0,1,.956,2.428,1.845,1.845,0,0,1-2.428.956,1.846,1.846,0,0,1-.957-2.428A1.846,1.846,0,0,1,2114.752-145.246Z" transform="translate(-53.977 -47.066)" fill="#fff"/>
    <path id="Path_481" data-name="Path 481" d="M2117.735-166.23a1.278,1.278,0,0,1,.662,1.681,1.278,1.278,0,0,1-1.681.662,1.277,1.277,0,0,1-.662-1.681A1.278,1.278,0,0,1,2117.735-166.23Z" transform="translate(-55.918 -36.308)" fill="#fff"/>
    <path id="Path_482" data-name="Path 482" d="M2107.993-166.26a.923.923,0,0,1,.478,1.214.923.923,0,0,1-1.214.478.922.922,0,0,1-.478-1.214A.922.922,0,0,1,2107.993-166.26Z" transform="translate(-51.168 -36.308)" fill="#fff"/>
    <path id="Path_483" data-name="Path 483" d="M2131.423-159.166a1.562,1.562,0,0,1,.809,2.055,1.562,1.562,0,0,1-2.054.809,1.561,1.561,0,0,1-.809-2.054A1.562,1.562,0,0,1,2131.423-159.166Z" transform="translate(-62.747 -39.926)" fill="#fff"/>
    <path id="Path_484" data-name="Path 484" d="M2074.36-126.041a1.561,1.561,0,0,1,.809,2.055,1.561,1.561,0,0,1-2.055.809,1.561,1.561,0,0,1-.809-2.054A1.561,1.561,0,0,1,2074.36-126.041Z" transform="translate(-33.427 -56.946)" fill="#fff"/>
    <path id="Path_485" data-name="Path 485" d="M2112.226-124.537a1.561,1.561,0,0,1,.809,2.054,1.561,1.561,0,0,1-2.054.81,1.561,1.561,0,0,1-.809-2.055A1.561,1.561,0,0,1,2112.226-124.537Z" transform="translate(-52.883 -57.719)" fill="#fff"/>
    <path id="Path_486" data-name="Path 486" d="M2121.225-111.055a.985.985,0,0,1,.51,1.3.985.985,0,0,1-1.3.51.986.986,0,0,1-.51-1.3A.985.985,0,0,1,2121.225-111.055Z" transform="translate(-57.922 -64.672)" fill="#fff"/>
    <path id="Path_487" data-name="Path 487" d="M2059.09-167.062a1.562,1.562,0,0,1,.81,2.055,1.562,1.562,0,0,1-2.055.809,1.562,1.562,0,0,1-.809-2.054A1.561,1.561,0,0,1,2059.09-167.062Z" transform="translate(-25.581 -35.869)" fill="#fff"/>
    <path id="Path_488" data-name="Path 488" d="M2065.7-114.081a1.111,1.111,0,0,1,.575,1.461,1.109,1.109,0,0,1-1.461.575,1.11,1.11,0,0,1-.575-1.46A1.11,1.11,0,0,1,2065.7-114.081Z" transform="translate(-29.304 -63.111)" fill="#fff"/>
    <path id="Path_489" data-name="Path 489" d="M2102.948-197.527a1.11,1.11,0,0,1,.575,1.46,1.11,1.11,0,0,1-1.46.575,1.111,1.111,0,0,1-.576-1.46A1.111,1.111,0,0,1,2102.948-197.527Z" transform="translate(-48.44 -20.235)" fill="#fff"/>
    <path id="Path_490" data-name="Path 490" d="M2047.164-170.271a1.109,1.109,0,0,1,.575,1.46,1.11,1.11,0,0,1-1.461.575,1.109,1.109,0,0,1-.575-1.46A1.11,1.11,0,0,1,2047.164-170.271Z" transform="translate(-19.777 -34.24)" fill="#fff"/>
    <path id="Path_491" data-name="Path 491" d="M2144.222-159.2a1.109,1.109,0,0,1,.574,1.46,1.109,1.109,0,0,1-1.46.575,1.109,1.109,0,0,1-.575-1.46A1.11,1.11,0,0,1,2144.222-159.2Z" transform="translate(-69.647 -39.926)" fill="#fff"/>
  </g>
</svg>
